# xmcd
#
# Track frame offsets:
#	150
#	21263
#	40868
#	56541
#	76184
#	97844
#	117398
#	129368
#	151308
#	170276
#	190976
#	210126
#	221126
#	242951
#
# Disc length: 3525 seconds
#
# Revision: 3
# Processed by: cddbd v1.5.2PL0 Copyright (c) Steve Scherf et al.
# Submitted via: audiograbber 1.83.01
#
DISCID=b20dc30e
DTITLE=Various Artist - Hot Hits Dancin' Country Vol. 7
DYEAR=1996
DGENRE=Country
TTITLE0=The Osborne Brothers - Rocky Top '96
TTITLE1=Roger Brown - Swing City
TTITLE2=The Groovegrass Boyz - Macarena (Country Version)
TTITLE3=Brooks and Dunn - Mama Don't Get Dressed Up For Nothing
TTITLE4=Jimmy Collins - Rodeo Rock
TTITLE5=Jeff Moore - Fever
TTITLE6=Alan Jackson - Little Bitty
TTITLE7=Tracy Byrd - Big Love
TTITLE8=Tony Toliver - Bettin' Forever On You
TTITLE9=Jeff Carson - Betty's Takin' Judo
TTITLE10=Diamond Rio - It's All In Your Head
TTITLE11=Randy Travis - Would I
TTITLE12=David Lee Murphy - Genuine Rednecks
TTITLE13=Travis Tritt - She's Going Home With Me
EXTD=
EXTT0=
EXTT1=
EXTT2=
EXTT3=
EXTT4=
EXTT5=
EXTT6=
EXTT7=
EXTT8=
EXTT9=
EXTT10=
EXTT11=
EXTT12=
EXTT13=
PLAYORDER=
